<?xml version="1.0" encoding="utf-8"?>
<!-- Generator: Adobe Illustrator 26.0.0, SVG Export Plug-In . SVG Version: 6.00 Build 0)  -->
<svg version="1.1" id="Capa_1" xmlns="http://www.w3.org/2000/svg" xmlns:xlink="http://www.w3.org/1999/xlink" x="0px" y="0px"
	 viewBox="0 0 500 500" style="enable-background:new 0 0 500 500;" xml:space="preserve">
<style type="text/css">
	.st0{fill:url(#SVGID_1_);}
	.st1{fill:url(#SVGID_00000051361386806955326540000004398795815635499905_);}
</style>
<g>
	<linearGradient id="SVGID_1_" gradientUnits="userSpaceOnUse" x1="273.8189" y1="417.3515" x2="229.8386" y2="203.0637">
		<stop  offset="0" style="stop-color:#9368E8"/>
		<stop  offset="1" style="stop-color:#222B7F"/>
	</linearGradient>
	<path class="st0" d="M362.4,233.13L362.4,233.13l0,0.06h-78.84c-8.65,0-15.66-6.38-15.66-14.25v-23.47
		c0-8.87-7.35-16.61-17.08-17.18c-10.66-0.63-19.52,7.05-19.52,16.61v38.34l36.62,9.28l77.79,19.72c9.87,2.5,16.69,10.68,16.69,20
		v70.18H166.88c-16.6,0-30.05-12.24-30.05-27.34v-15.46c0-6.69-5.96-12.11-13.32-12.11h-23.28v32.87
		c0,30.56,27.23,55.33,60.82,55.33h210.86c14.96,0,27.09-11.03,27.09-24.64v-94.65C399,248.03,382.62,233.13,362.4,233.13z"/>
	
		<linearGradient id="SVGID_00000080170460863939301730000015485940409826578083_" gradientUnits="userSpaceOnUse" x1="175.5831" y1="104.38" x2="304.0401" y2="266.3891">
		<stop  offset="0" style="stop-color:#F18535"/>
		<stop  offset="1" style="stop-color:#C14935"/>
	</linearGradient>
	<path style="fill:url(#SVGID_00000080170460863939301730000015485940409826578083_);" d="M338.18,114H127.32
		c-14.96,0-27.09,11.03-27.09,24.64v94.65c0,18.39,16.38,33.29,36.6,33.29h0v-0.06h78.84c8.65,0,15.66,6.38,15.66,14.25v23.47
		c0,8.87,7.35,16.61,17.08,17.18c10.66,0.63,19.52-7.05,19.52-16.61v-38.34l-114.4-29c-9.87-2.5-16.69-10.68-16.69-20v-70.18h195.52
		c16.6,0,30.05,12.24,30.05,27.34v15.46c0,6.69,5.96,12.11,13.32,12.11H399v-32.87C399,138.77,371.77,114,338.18,114z"/>
</g>
</svg>
