<svg id="Capa_1" data-name="Capa 1" xmlns="http://www.w3.org/2000/svg" viewBox="0 0 777.67 259.56"><defs><style>.cls-1{font-size:219.86px;font-family:Haettenschweiler;}.cls-1,.cls-4{fill:#1f122f;}.cls-2{fill:#fbb725;}.cls-3{fill:#fb7425;}</style></defs><text class="cls-1" transform="translate(0 186.88)">SATURN</text><path class="cls-2" d="M721.11,37.34a82.74,82.74,0,0,0-115.71,0c-1,1-2,2-3,3.1C620,45.29,641.59,48,663.27,48c22.42,0,43.43-2.59,60.89-7.49C723.18,39.4,722.15,38.36,721.11,37.34ZM681.17,23.05c-1.7,2.83-9.08,4.95-17.9,4.95-8.51,0-15.66-2-17.71-4.63a2.52,2.52,0,0,1-.59-1.58,2.76,2.76,0,0,1,.91-1.93,11.66,11.66,0,0,1,4.59-2.49,47.35,47.35,0,0,1,25.58,0,11.66,11.66,0,0,1,4.59,2.49,2.81,2.81,0,0,1,.91,1.93A2.37,2.37,0,0,1,681.17,23.05Z" transform="translate(-11.33 8.48)"/><path class="cls-2" d="M663.29,138.3a401.31,401.31,0,0,0,74-6.7,80.94,80.94,0,0,1-14.92,20.88l-3.86.59a367.14,367.14,0,0,1-55.19,4.14,369.13,369.13,0,0,1-55.18-4.08l-3.88-.6a82,82,0,0,1-15-20.86A405.77,405.77,0,0,0,663.29,138.3Z" transform="translate(-11.33 8.48)"/><path class="cls-2" d="M663.29,103c-30.8,0-58.61-3.46-82.71-9.25a82,82,0,0,1,4.07-23.15c.24-.72.5-1.47.76-2.19l.11,0c21.76,7.26,48.64,11.09,77.75,11.09,27.6,0,53.57-3.57,75.1-10.3.56-.16,1.14-.35,1.73-.55l.85-.26.15,0c.26.74.52,1.49.76,2.23a81.3,81.3,0,0,1,4.07,23.15A356.61,356.61,0,0,1,663.29,103Z" transform="translate(-11.33 8.48)"/><path class="cls-3" d="M663.29,160a370.3,370.3,0,0,1-55.6-4.12,82.66,82.66,0,0,0,111.21-.06A369.28,369.28,0,0,1,663.29,160Z" transform="translate(-11.33 8.48)"/><path class="cls-3" d="M726.22,42.8c-16,4.64-37.26,8-63,8-24.39,0-46.15-3.21-62.92-8a82.29,82.29,0,0,0-14,23.06c21,7,47.55,10.94,76.87,10.94,27.32,0,53-3.51,74.27-10.16l2.56-.82A82.51,82.51,0,0,0,726.22,42.8Z" transform="translate(-11.33 8.48)"/><path class="cls-4" d="M757.13,75.21c7.76,3.75,12.17,8,12.17,12.54,0,14.9-47.47,27-106,27s-106-12.08-106-27c0-4.53,4.41-8.79,12.17-12.54-19.81,5.65-31.87,13.1-31.87,21.27,0,17.66,56.3,32,125.74,32S789,114.14,789,96.48C789,88.31,776.94,80.86,757.13,75.21Z" transform="translate(-11.33 8.48)"/><path class="cls-3" d="M663.26,18.39A39.34,39.34,0,0,1,675.17,20a8.74,8.74,0,0,1,3.47,1.78h0c-1.17,1.26-6.55,3.4-15.38,3.4-8.44,0-14-2-15.38-3.41A8.69,8.69,0,0,1,651.34,20a39.41,39.41,0,0,1,11.92-1.63" transform="translate(-11.33 8.48)"/></svg>